<svg viewBox="-177 -142 381 356" width="381" height="356" version="1.1" baseProfile="full" xmlns="http://www.w3.org/2000/svg" class="js-draw--autoresize"><style id="js-draw-style-sheet">path{stroke-linecap:round;stroke-linejoin:round;}text{white-space:pre;}</style><path d="M204,214l0-356l-381,0l0,356l381,0" fill="#ffffff" class="js-draw-image-background"></path><path d="M29,-52q5-8 26-38q27-39 22-44q-6-6 -96,1q-34,3 -34,15q0,2 82,84q11,11 43,61q13,20 3,100q-2,14 -35,60q-18,25 -112,12q-32-4 -98-115q-5-8 1-48q2-12 60-16q25-2 127,0q55,1 58-9q3-8 45-34q36-22 50-36q5-5 -67-2q-30,1 -63,38q-7,8 33,41q27,22 124,51q4,1 4,12" fill="none" stroke="#803380" stroke-width="4"></path></svg>